<?xml version="1.0" standalone="no"?>
<!DOCTYPE svg PUBLIC "-//W3C//DTD SVG 20010904//EN"
 "http://www.w3.org/TR/2001/REC-SVG-20010904/DTD/svg10.dtd">
<svg version="1.0" xmlns="http://www.w3.org/2000/svg"
 width="640.000000pt" height="640.000000pt" viewBox="0 0 640.000000 640.000000"
 preserveAspectRatio="xMidYMid meet">
<metadata>
Created by potrace 1.11, written by Peter Selinger 2001-2013
</metadata>
<g transform="translate(0.000000,640.000000) scale(0.100000,-0.100000)"
fill="#000000" stroke="none">
<path d="M3100 6390 c-710 -62 -1354 -359 -1854 -855 -590 -584 -919 -1406
-875 -2180 18 -306 56 -546 125 -771 180 -596 518 -1090 1025 -1497 53 -42
113 -93 135 -113 34 -33 35 -35 10 -22 -20 10 -37 13 -55 7 -14 -5 -82 -20
-150 -35 -394 -83 -617 -208 -587 -329 23 -92 207 -186 506 -260 936 -230
2716 -227 3625 5 509 130 632 292 337 443 -81 42 -268 108 -348 123 -18 3 -34
11 -34 16 0 5 -20 -2 -45 -16 -68 -41 -54 -25 28 29 566 376 989 920 1204
1550 152 447 193 970 112 1449 -134 799 -599 1513 -1282 1969 -379 254 -798
409 -1274 472 -144 19 -461 27 -603 15z m-130 -40 c0 -5 7 -10 15 -10 9 0 34
-9 56 -21 38 -19 41 -23 37 -55 -3 -23 0 -34 9 -34 9 0 13 14 13 40 0 34 -5
43 -30 59 l-31 18 62 7 c94 9 361 7 484 -4 131 -13 320 -44 430 -71 115 -28
111 -26 90 -49 -11 -12 -18 -36 -18 -57 0 -53 21 -54 25 -1 2 35 9 46 36 65
l33 22 117 -41 c224 -78 437 -183 641 -315 92 -59 95 -62 70 -72 -34 -12 -89
-79 -89 -107 0 -12 7 -27 15 -34 13 -11 15 -8 15 21 0 24 9 42 32 66 18 18 38
33 45 33 15 0 246 -185 288 -231 17 -18 -8 0 -55 40 -46 40 -117 97 -156 127
-76 59 -90 61 -125 18 -9 -11 -1 -9 19 6 30 22 34 23 48 8 14 -13 15 -30 9
-97 l-7 -81 -40 41 c-22 22 -42 39 -44 36 -2 -2 17 -26 43 -53 27 -27 56 -60
66 -72 10 -13 22 -20 27 -17 6 3 10 -3 10 -14 0 -12 5 -21 10 -21 6 0 9 -3 9
-7 -6 -36 30 -45 69 -17 29 20 28 41 -3 86 -14 20 -25 43 -25 51 0 32 -26 38
-61 14 -60 -41 -66 -43 -50 -23 8 10 33 27 55 38 38 19 40 20 53 2 7 -10 13
-24 13 -30 0 -7 12 -30 26 -51 15 -22 24 -47 21 -60 -6 -31 19 -37 50 -13 14
11 32 20 39 20 7 0 18 8 23 18 12 19 14 12 5 -12 -3 -9 -15 -16 -25 -16 -10 0
-28 -9 -39 -20 -14 -14 -28 -18 -49 -14 -25 5 -31 2 -44 -26 -23 -46 -2 -81
30 -49 8 8 17 5 32 -10 12 -12 17 -21 13 -21 -4 0 -13 5 -18 10 -6 6 -18 8
-26 5 -13 -5 -11 -16 14 -76 39 -92 64 -196 73 -296 6 -76 10 -85 37 -108 17
-14 48 -35 69 -46 22 -11 39 -22 39 -24 0 -11 -81 36 -115 66 -32 29 -35 29
-35 10 0 -14 18 -32 58 -58 145 -93 136 -84 132 -131 -2 -28 45 -102 65 -102
8 0 23 -20 34 -45 14 -31 26 -45 40 -45 10 0 26 -3 35 -6 12 -5 16 0 16 18 0
16 9 29 25 38 33 17 32 32 -5 73 -32 37 -40 58 -14 36 14 -11 18 -10 33 10 10
13 24 22 31 19 7 -2 27 -44 44 -93 29 -82 34 -90 60 -93 15 -2 42 -12 60 -23
38 -23 55 -24 71 -3 12 18 55 11 55 -8 0 -6 -6 -6 -15 2 -18 15 -28 8 -32 -24
-2 -13 -15 -56 -28 -97 -14 -40 -25 -76 -25 -81 0 -4 19 -9 43 -9 l42 -2 -50
-9 c-79 -14 -94 -12 -201 31 -56 23 -106 41 -112 41 -6 0 -12 5 -14 11 -6 19
-81 -8 -112 -40 -23 -24 -28 -36 -23 -60 7 -34 -2 -38 -36 -17 -12 8 -40 17
-62 21 -22 4 -54 20 -73 37 -39 33 -61 44 -112 53 -19 3 -47 17 -63 30 -24 21
-26 27 -15 49 9 21 8 34 -5 66 -14 37 -14 41 1 50 14 8 13 9 -8 10 -15 0 -30
4 -35 9 -11 11 -172 -5 -189 -18 -6 -5 -52 -11 -103 -14 -95 -6 -145 -23 -174
-60 -14 -17 -27 -20 -70 -18 -68 2 -89 9 -89 26 0 20 37 42 84 51 43 7 106 40
106 55 0 4 10 17 22 29 12 11 18 23 15 27 -4 3 -7 1 -7 -5 0 -7 -6 -12 -14
-12 -8 0 -17 -10 -20 -22 -7 -26 -59 -55 -116 -64 -75 -12 -111 -78 -47 -88
110 -17 113 -17 137 9 36 38 83 55 172 61 46 3 94 10 108 15 49 18 162 27 187
14 12 -7 20 -14 18 -17 -3 -3 1 -18 9 -33 14 -26 13 -32 -12 -79 -40 -78 -235
-267 -366 -355 -197 -131 -436 -238 -681 -304 -143 -39 -155 -36 -116 33 11
21 21 47 21 58 0 11 14 32 30 45 17 14 30 35 30 47 0 30 86 137 117 145 13 3
47 27 75 53 43 40 49 50 44 75 -10 47 25 108 84 147 33 23 60 51 74 79 l23 44
-21 39 c-20 38 -22 39 -63 34 -42 -5 -43 -5 -43 22 0 16 -7 37 -16 48 -14 18
-15 18 -4 -5 7 -13 10 -37 8 -53 l-5 -30 48 6 c47 6 48 6 64 -27 23 -50 1 -96
-70 -143 -62 -41 -95 -95 -95 -153 0 -34 -6 -44 -48 -79 -27 -23 -60 -44 -75
-47 -15 -4 -27 -11 -27 -15 0 -4 -18 -30 -40 -56 -22 -27 -40 -59 -40 -71 0
-13 -12 -31 -30 -45 -16 -12 -30 -29 -30 -38 0 -10 -11 -38 -25 -64 -26 -50
-32 -90 -14 -101 6 -4 7 -19 4 -35 -3 -16 -2 -31 4 -35 24 -14 -5 -165 -38
-198 -15 -15 -14 -32 4 -47 11 -9 14 -22 10 -42 -10 -44 11 -94 46 -108 40
-17 97 -93 110 -147 12 -44 28 -59 194 -177 l60 -43 50 24 c55 25 117 29 176
11 37 -11 44 -9 123 30 126 63 190 56 229 -24 l22 -46 62 5 c55 4 64 2 84 -19
19 -21 21 -30 16 -84 -4 -33 -14 -73 -23 -88 -8 -15 -12 -18 -8 -7 13 38 25
117 21 133 -3 10 -5 5 -6 -10 -1 -21 -33 -61 -133 -164 -590 -610 -1337 -1031
-2158 -1219 -63 -15 -126 -27 -140 -28 -15 -2 -29 -12 -37 -27 -7 -14 -13 -18
-13 -10 0 8 4 20 8 26 14 21 133 95 175 110 69 23 88 36 118 80 36 53 69 211
69 332 l0 84 55 78 c30 43 55 81 55 84 0 3 15 38 34 77 l34 71 -20 58 c-17 52
-23 59 -52 64 -18 3 -46 20 -62 37 -16 17 -49 46 -74 64 -40 29 -50 33 -92 28
-67 -8 -146 13 -150 39 -2 12 -11 22 -20 24 -9 1 -42 13 -72 27 -31 15 -58 22
-61 16 -9 -13 -25 -11 -25 4 0 7 -14 21 -31 31 -24 14 -30 24 -26 42 3 15 -4
30 -19 45 -14 13 -25 38 -29 67 -6 41 -13 52 -60 90 -46 37 -58 42 -104 42
-69 0 -163 46 -180 89 -7 16 -26 35 -41 41 -16 7 -41 27 -55 45 -14 19 -35 37
-47 41 -20 6 -21 7 -4 20 31 23 10 32 -51 21 -32 -5 -63 -13 -68 -18 -6 -4
-29 -2 -50 6 -22 8 -54 14 -72 15 -46 0 -77 17 -98 52 l-18 31 -18 -36 c-20
-38 -36 -53 -47 -42 -4 4 1 13 11 20 13 9 17 20 12 34 -9 28 -22 26 -75 -9
-25 -16 -60 -33 -78 -36 -32 -6 -72 -48 -72 -76 0 -8 -11 -25 -24 -37 l-25
-23 -34 26 c-37 29 -76 32 -122 12 -25 -11 -34 -11 -56 2 -58 33 -72 98 -44
202 20 76 19 92 -13 115 -21 16 -43 20 -104 20 -42 0 -79 3 -83 7 -4 3 5 35
20 70 14 34 35 87 46 117 10 30 23 59 29 66 8 9 -3 14 -46 19 -78 9 -121 -13
-143 -73 -15 -42 -18 -45 -81 -62 -36 -10 -71 -18 -79 -19 -26 0 -80 70 -96
123 -15 52 -14 55 15 142 16 49 30 105 30 125 0 36 4 39 99 103 89 59 103 65
135 60 20 -3 39 -10 42 -14 11 -18 63 -8 92 16 25 21 40 25 90 25 45 0 61 -4
66 -16 5 -12 14 -14 45 -9 34 6 41 3 51 -15 7 -13 10 -35 6 -50 -9 -49 5 -100
39 -136 18 -19 37 -34 42 -34 5 0 17 25 27 55 15 48 15 65 5 139 l-12 85 42
50 c24 28 77 73 119 100 42 28 96 69 119 93 38 39 42 48 41 88 l-1 45 -4 -40
c-5 -47 -36 -84 -103 -124 -88 -51 -155 -104 -193 -152 l-38 -49 7 -103 c5
-82 3 -109 -8 -131 l-15 -28 -23 36 c-19 32 -22 46 -16 95 6 54 5 58 -24 86
-26 25 -33 27 -54 17 -20 -9 -27 -7 -41 8 -24 26 -145 22 -177 -7 -29 -26 -53
-34 -65 -22 -5 5 -29 12 -54 15 -44 6 -50 3 -152 -62 -106 -68 -107 -69 -108
-109 0 -37 -36 -156 -38 -128 -2 25 51 259 84 373 99 341 294 715 522 1000 70
89 320 350 335 350 4 0 8 -21 8 -46 0 -44 1 -46 25 -40 15 4 37 0 55 -9 32
-17 50 -19 50 -7 0 12 -66 42 -92 42 -18 0 -20 4 -15 34 3 22 1 37 -6 40 -22
9 67 77 168 128 55 28 104 56 110 64 18 24 135 23 135 -1 0 -9 6 -12 15 -9 8
4 15 16 15 28 0 12 16 37 35 56 33 32 35 33 54 16 11 -10 25 -15 31 -11 6 4 2
14 -12 26 l-23 20 23 -11 c19 -9 27 -8 41 4 10 9 26 16 37 16 25 0 94 47 94
64 0 7 9 21 20 31 12 10 19 24 16 31 -7 18 134 25 155 7 17 -14 39 -18 39 -5
0 4 -11 15 -24 24 -19 13 -40 16 -102 14 l-79 -3 45 19 c25 11 92 37 150 58
l105 37 23 -28 c14 -17 33 -29 47 -29 13 0 28 -7 33 -16 7 -12 16 -14 33 -9
l24 8 -23 8 c-12 5 -22 13 -22 19 0 5 -13 10 -29 10 -21 0 -36 8 -50 28 l-20
28 117 32 c97 26 240 56 362 75 14 2 28 5 33 6 4 0 7 -3 7 -9z m-868 -296
c-13 -9 -21 -22 -18 -30 6 -15 -52 -54 -81 -54 -10 0 -24 -5 -31 -12 -9 -9
-18 -9 -37 0 -34 16 -55 15 -55 -1 0 -24 -164 -111 -198 -105 -12 2 -7 9 18
24 19 12 65 40 102 63 37 22 76 41 86 41 15 0 107 52 138 78 6 5 24 17 40 25
25 14 31 14 44 1 13 -12 12 -16 -8 -30z m-286 -183 c-6 -10 -66 -33 -66 -26 0
3 15 11 33 19 40 18 39 18 33 7z m-166 -37 c-8 -8 -23 -20 -34 -25 -13 -7 -9
-1 9 15 34 29 43 33 25 10z m3540 -321 c0 -6 -5 -15 -11 -18 -14 -9 -38 24
-39 54 0 21 -3 23 -36 18 -31 -5 -34 -4 -23 10 30 35 52 32 81 -11 15 -23 28
-46 28 -53z m300 -74 c0 -3 -10 -10 -22 -16 -18 -8 -26 -6 -39 10 -16 20 -16
20 -61 -1 -53 -26 -59 -27 -52 -7 4 8 1 22 -6 30 -10 13 -8 15 13 15 31 0 50
22 51 60 l1 29 58 -57 c31 -31 57 -59 57 -63z m-255 -9 c-3 -5 -11 -10 -16
-10 -6 0 -7 5 -4 10 3 6 11 10 16 10 6 0 7 -4 4 -10z m49 -9 c10 -11 13 -21 7
-25 -12 -8 -43 22 -36 35 8 12 9 12 29 -10z m136 -23 c10 -20 9 -21 -2 -6 -13
15 -18 14 -63 -7 -28 -13 -54 -24 -60 -24 -8 0 101 57 112 59 1 0 7 -10 13
-22z m91 -15 c13 -17 13 -17 -6 -3 -11 8 -22 16 -24 17 -2 2 0 3 6 3 6 0 17
-8 24 -17z m45 -55 l29 -33 -32 29 c-31 28 -38 36 -30 36 2 0 16 -15 33 -32z
m74 -88 c17 -22 30 -40 27 -40 -3 0 -22 21 -43 47 -21 26 -33 44 -27 40 6 -4
26 -25 43 -47z m51 -67 c13 -16 12 -17 -3 -4 -10 7 -18 15 -18 17 0 8 8 3 21
-13z m30 -40 c13 -16 12 -17 -3 -4 -10 7 -18 15 -18 17 0 8 8 3 21 -13z m214
-296 c41 -75 42 -80 13 -72 -65 18 -74 25 -76 60 -2 19 2 35 8 35 5 0 10 9 10
20 0 11 2 20 5 20 2 0 20 -29 40 -63z m-98 -9 c-3 -7 -5 -2 -5 12 0 14 2 19 5
13 2 -7 2 -19 0 -25z m-313 -46 c10 -12 16 -27 13 -34 -4 -9 -6 -8 -6 4 -1 9
-16 28 -33 43 -18 15 -24 22 -13 17 11 -6 29 -19 39 -30z m317 1 c13 -16 12
-17 -3 -4 -10 7 -18 15 -18 17 0 8 8 3 21 -13z m-123 -63 c-7 -10 -14 -17 -17
-15 -4 4 18 35 25 35 2 0 -1 -9 -8 -20z m-181 -22 c-3 -7 -5 -2 -5 12 0 14 2
19 5 13 2 -7 2 -19 0 -25z m110 -10 c-3 -8 -6 -5 -6 6 -1 11 2 17 5 13 3 -3 4
-12 1 -19z m37 -57 c21 -22 25 -31 14 -37 -7 -4 -10 -3 -5 1 4 5 -5 21 -20 37
-15 15 -24 28 -22 28 3 0 18 -13 33 -29z m-70 -10 c10 -11 16 -28 13 -38 -4
-15 -5 -14 -6 4 0 12 -11 29 -23 37 -12 9 -18 16 -12 16 6 0 19 -9 28 -19z
m-444 -276 c14 -15 36 -26 54 -26 l31 -2 -29 -4 c-20 -3 -36 2 -55 20 -14 13
-33 27 -41 30 -13 5 -13 6 1 6 8 1 26 -10 39 -24z m130 -51 c0 -2 -9 0 -20 6
-11 6 -20 13 -20 16 0 2 9 0 20 -6 11 -6 20 -13 20 -16z m40 -29 c13 -14 21
-25 18 -25 -2 0 -15 11 -28 25 -13 14 -21 25 -18 25 2 0 15 -11 28 -25z m73
-42 c-7 -2 -19 -2 -25 0 -7 3 -2 5 12 5 14 0 19 -2 13 -5z m61 -12 c4 -5 -3
-7 -14 -4 -23 6 -26 13 -6 13 8 0 17 -4 20 -9z m-1264 -438 c-19 -8 -70 -49
-114 -91 -75 -73 -79 -75 -90 -55 -9 19 -11 14 -12 -35 -1 -60 -22 -144 -41
-163 -8 -8 -7 -18 3 -37 7 -14 11 -36 8 -48 -9 -35 4 -61 39 -81 38 -23 104
-115 112 -158 4 -25 3 -23 -10 8 -22 58 -81 133 -115 147 -30 12 -38 33 -38
104 0 17 -7 35 -15 41 -14 10 -13 13 4 23 11 7 19 23 19 38 0 14 7 39 16 56
11 21 14 45 11 77 -3 25 -8 62 -10 83 l-4 36 101 26 c56 14 113 30 126 35 40
16 48 11 10 -6z m-3758 -116 c13 -20 36 -46 51 -57 l27 -21 87 24 88 23 18 51
c20 55 33 63 98 63 l37 0 -30 -77 c-16 -43 -37 -96 -45 -118 -8 -22 -19 -45
-25 -52 -20 -25 4 -33 95 -33 72 0 97 -4 114 -18 l21 -17 -18 -70 c-23 -86
-25 -135 -5 -161 17 -23 19 -38 3 -28 -7 4 -8 3 -4 -5 4 -6 11 -9 15 -6 5 2
16 -4 26 -15 17 -19 17 -20 -1 -20 -11 0 -26 6 -34 13 -12 10 -12 9 0 -6 10
-13 22 -17 40 -13 15 3 32 0 38 -6 7 -7 17 -6 33 6 35 24 57 21 33 -5 -10 -12
-18 -30 -16 -40 4 -25 -4 -24 -40 6 -16 14 -40 25 -52 25 -13 0 -37 16 -57 37
-21 23 -24 30 -9 18 l25 -20 -19 22 c-10 12 -21 22 -25 21 -18 -3 -41 17 -41
37 0 13 -11 36 -23 52 -13 15 -27 40 -31 56 -4 19 -13 27 -27 27 -12 0 -53 9
-92 21 -58 17 -80 29 -112 64 -57 61 -78 70 -130 55 -24 -7 -49 -10 -56 -8
-14 5 -14 61 -2 198 5 59 8 68 13 44 4 -16 18 -47 32 -67z m117 -235 c41 -43
57 -52 138 -77 79 -24 93 -32 103 -56 7 -16 18 -34 26 -40 8 -6 14 -22 14 -36
0 -31 124 -150 152 -145 10 2 32 -8 49 -22 35 -30 38 -30 62 -11 12 9 17 20
13 33 -8 23 15 45 38 36 9 -3 16 -14 16 -23 0 -9 7 -26 15 -37 8 -12 17 -58
21 -102 l7 -82 -42 -41 c-22 -23 -41 -50 -41 -60 0 -9 -9 -21 -20 -24 -11 -3
-23 -18 -26 -33 -4 -15 -15 -43 -25 -63 -19 -38 -16 -72 9 -101 13 -15 12 -20
-12 -48 -31 -37 -30 -32 -11 -98 9 -30 24 -56 35 -62 11 -6 36 -43 56 -83 20
-40 49 -90 64 -112 15 -22 50 -85 78 -140 l50 -100 115 -83 c64 -46 118 -91
121 -100 23 -78 36 -201 34 -331 -1 -104 -3 -130 -8 -91 -4 30 -7 47 -8 38 -1
-10 -5 -18 -9 -18 -5 0 -55 5 -113 10 -58 5 -124 11 -148 12 -39 1 -47 7 -125
92 -465 506 -729 1103 -787 1781 -15 180 -14 259 5 251 8 -3 25 -1 37 4 48 19
71 11 117 -38z m924 -149 c-7 -2 -13 -16 -13 -29 0 -14 -7 -35 -15 -47 -14
-22 -13 -25 20 -57 l35 -34 -6 44 c-5 41 -3 48 26 75 21 21 33 26 38 18 12
-20 78 -43 122 -43 23 0 54 -7 71 -15 27 -14 32 -14 51 0 25 17 58 20 58 6 0
-5 16 -18 35 -30 19 -11 35 -27 35 -35 0 -8 21 -25 46 -38 30 -15 50 -32 56
-50 5 -14 16 -29 24 -32 9 -3 13 -10 9 -15 -3 -6 5 -15 17 -21 22 -11 22 -10
4 4 -27 22 -13 20 34 -4 22 -11 54 -20 72 -20 50 0 93 -15 132 -47 30 -23 38
-38 47 -85 8 -41 17 -59 30 -63 21 -7 23 -19 8 -50 -8 -17 -9 -16 -5 8 2 19
-2 31 -15 37 -10 6 -21 26 -24 48 -4 20 -10 47 -15 59 -8 20 -12 20 -52 10
-26 -7 -154 -11 -328 -11 -297 0 -361 6 -617 55 l-112 22 -3 51 c-2 37 -7 51
-18 51 -8 0 -20 15 -26 34 -6 19 -21 43 -34 53 -12 10 -19 18 -14 18 16 0 62
-53 58 -65 -3 -7 -1 -16 5 -20 7 -3 8 0 5 9 -4 11 0 16 12 16 25 0 84 59 84
84 1 28 23 56 44 56 20 0 92 36 101 50 3 5 12 10 18 9 9 0 9 -2 0 -6z m2693
-255 c4 -7 -9 1 -29 16 -20 16 -37 30 -37 33 0 7 58 -36 66 -49z m-2941 -175
c-3 -12 -18 -34 -35 -50 -17 -15 -30 -38 -30 -51 0 -16 -7 -26 -21 -29 -13 -4
-29 -26 -45 -61 -29 -67 -29 -69 -1 -101 l22 -26 -27 24 c-34 29 -34 29 -5
103 16 42 28 60 45 64 14 4 22 14 22 29 0 12 16 39 35 59 35 37 35 38 37 134
l2 97 3 -85 c2 -47 1 -95 -2 -107z m3005 130 c0 -7 -39 17 -46 28 -3 6 5 3 20
-6 14 -10 26 -19 26 -22z m70 -49 c0 -3 -13 4 -30 16 -16 12 -30 24 -30 26 0
3 14 -4 30 -16 17 -12 30 -24 30 -26z m50 -4 c-8 -5 -22 -9 -30 -9 -10 0 -8 3
5 9 27 12 43 12 25 0z m-1900 -255 c25 -13 30 -21 29 -48 -2 -31 -2 -31 -6 -4
-3 18 -16 35 -36 48 -38 23 -29 25 13 4z m2587 -47 c-3 -7 -5 -2 -5 12 0 14 2
19 5 13 2 -7 2 -19 0 -25z m-2388 -67 c-2 -25 -2 -25 -6 -3 -3 16 -18 29 -50
43 -55 23 -61 23 -87 2 -17 -14 -16 -13 2 9 l23 26 60 -26 c51 -22 59 -29 58
-51z m-1557 -54 c-11 -12 -25 -33 -31 -47 -6 -16 -10 -19 -10 -8 -1 16 44 78
57 78 3 0 -4 -10 -16 -23z m1655 17 c-3 -3 -12 -4 -19 -1 -8 3 -5 6 6 6 11 1
17 -2 13 -5z m194 -55 l64 -61 -64 56 c-35 30 -73 57 -85 59 l-21 4 21 2 c13
0 45 -21 85 -60z m-123 44 c-10 -2 -28 -2 -40 0 -13 2 -5 4 17 4 22 1 32 -1
23 -4z m-1713 -158 c19 -16 19 -16 -3 -5 -22 11 -43 48 -41 73 0 7 6 -2 12
-20 7 -18 21 -39 32 -48z m1936 37 c-7 -2 -18 1 -23 6 -8 8 -4 9 13 5 13 -4
18 -8 10 -11z m-1781 -292 c6 -11 8 -20 6 -20 -3 0 -10 9 -16 20 -6 11 -8 20
-6 20 3 0 10 -9 16 -20z m110 -847 c0 -8 -9 0 -50 45 l-45 47 48 -45 c26 -24
47 -45 47 -47z m1227 55 c-3 -7 -5 -2 -5 12 0 14 2 19 5 13 2 -7 2 -19 0 -25z"/>
<path d="M4962 5715 c0 -16 2 -22 5 -12 2 9 2 23 0 30 -3 6 -5 -1 -5 -18z"/>
<path d="M5155 5440 c3 -5 10 -10 16 -10 5 0 9 5 9 10 0 6 -7 10 -16 10 -8 0
-12 -4 -9 -10z"/>
<path d="M1869 4863 c-13 -16 -12 -17 4 -4 9 7 17 15 17 17 0 8 -8 3 -21 -13z"/>
<path d="M5292 4789 c2 -34 0 -45 -9 -42 -24 9 -13 -13 22 -47 39 -37 43 -55
19 -81 -11 -13 -25 -16 -54 -12 -31 4 -41 2 -46 -12 -5 -13 -9 -14 -15 -3 -5
7 -9 8 -9 2 0 -19 25 -40 70 -59 25 -11 48 -24 51 -29 9 -12 31 30 27 52 -2
11 4 18 18 20 12 2 27 15 35 30 8 15 18 30 23 33 4 4 0 18 -9 33 -17 25 -17
26 5 26 14 0 24 -8 27 -20 8 -30 28 -18 31 19 3 30 0 33 -51 57 -30 13 -58 31
-61 39 -3 8 -16 15 -29 15 -13 0 -29 6 -36 13 -11 10 -12 3 -9 -34z m39 -17
c-7 -2 -18 1 -23 6 -8 8 -4 9 13 5 13 -4 18 -8 10 -11z m39 -22 c8 -5 11 -10
5 -10 -5 0 -17 5 -25 10 -8 5 -10 10 -5 10 6 0 17 -5 25 -10z m7 -70 c14 -17
8 -48 -14 -70 -13 -13 -13 -10 0 16 16 31 16 32 -20 75 -32 38 -33 40 -8 19
16 -14 35 -32 42 -40z m32 57 c-2 -1 -13 -9 -24 -17 -19 -14 -19 -14 -6 3 7 9
18 17 24 17 6 0 8 -1 6 -3z m-113 -166 c-3 -5 -15 -7 -26 -4 -28 7 -25 13 6
13 14 0 23 -4 20 -9z m24 -6 c0 -8 -4 -15 -10 -15 -5 0 -7 7 -4 15 4 8 8 15
10 15 2 0 4 -7 4 -15z"/>
<path d="M1838 4798 c11 -14 10 -18 -5 -27 -10 -6 -13 -11 -7 -11 6 0 17 6 23
14 9 10 7 17 -6 27 -16 13 -17 12 -5 -3z"/>
<path d="M4343 4775 c0 -22 2 -30 4 -17 2 12 2 30 0 40 -3 9 -5 -1 -4 -23z"/>
<path d="M1778 4753 c6 -2 18 -2 25 0 6 3 1 5 -13 5 -14 0 -19 -2 -12 -5z"/>
<path d="M5230 4756 c0 -2 7 -7 16 -10 8 -3 12 -2 9 4 -6 10 -25 14 -25 6z"/>
<path d="M1711 4736 c-19 -7 -49 -29 -66 -49 -18 -20 -40 -37 -49 -37 -9 0
-22 -12 -29 -27 -6 -16 -16 -31 -22 -35 -6 -5 -5 -8 3 -8 8 0 19 14 25 30 7
17 19 30 28 30 10 0 32 18 49 40 17 22 37 40 43 40 15 1 75 28 62 28 -5 0 -25
-5 -44 -12z"/>
<path d="M4320 4699 c-6 -11 -10 -25 -8 -30 2 -5 8 4 15 21 13 34 9 40 -7 9z"/>
<path d="M4724 4708 c-4 -7 -14 -24 -22 -38 -14 -24 -13 -24 3 -5 20 24 37 55
31 55 -3 0 -8 -6 -12 -12z"/>
<path d="M1002 3821 c-21 -18 -32 -36 -32 -54 0 -41 18 -42 56 -2 l34 37 68
-23 c84 -27 91 -33 98 -80 l7 -39 67 0 c74 0 125 14 134 36 5 14 -21 34 -45
34 -6 0 -31 17 -53 38 -46 42 -124 67 -241 75 -54 4 -63 2 -93 -22z m221 -23
c33 -7 65 -24 99 -54 29 -24 59 -45 67 -45 20 -2 -74 -17 -111 -18 -25 -1 -28
3 -28 29 0 38 -29 64 -99 89 -52 19 -53 20 -16 15 22 -3 62 -10 88 -16z m-193
9 c0 -2 -10 -12 -22 -23 l-23 -19 19 23 c18 21 26 27 26 19z"/>
<path d="M1461 3672 c4 -42 -1 -51 -32 -54 -32 -3 -60 -30 -46 -44 4 -4 27 -7
52 -7 25 0 45 -4 45 -9 0 -16 59 -8 68 9 7 12 27 18 71 21 73 5 78 19 26 66
-31 28 -41 31 -110 32 -66 2 -76 0 -74 -14z m108 -15 c19 5 81 -24 81 -38 0
-4 -25 -9 -56 -11 -39 -3 -59 -10 -66 -21 -11 -21 -28 -22 -28 -3 0 10 -12 13
-42 11 -39 -2 -40 -2 -8 4 30 5 35 10 38 38 3 29 5 31 32 23 16 -5 38 -6 49
-3z"/>
<path d="M882 3220 c0 -14 2 -19 5 -12 2 6 2 18 0 25 -3 6 -5 1 -5 -13z"/>
<path d="M921 3224 c0 -11 3 -14 6 -6 3 7 2 16 -1 19 -3 4 -6 -2 -5 -13z"/>
<path d="M1055 3090 c-3 -5 -1 -10 4 -10 6 0 11 5 11 10 0 6 -2 10 -4 10 -3 0
-8 -4 -11 -10z"/>
<path d="M2168 2933 c7 -3 16 -2 19 1 4 3 -2 6 -13 5 -11 0 -14 -3 -6 -6z"/>
<path d="M2260 2923 c14 -3 32 -10 40 -16 13 -11 13 -10 1 6 -7 9 -25 16 -40
16 l-26 -2 25 -4z"/>
</g>
</svg>
